<svg width="213" height="44" viewBox="0 0 213 44" fill="none" xmlns="http://www.w3.org/2000/svg">
<g id="Frame 3 1">
<path id="Vector" d="M6.48897 12.5374C6.29361 13.3504 6.13921 14.0373 6.02578 14.5982C5.91864 15.1591 5.83984 15.6412 5.78946 16.0445C5.74533 16.4416 5.72328 16.8071 5.72328 17.1411C5.72328 19.0758 7.1066 20.0432 9.87319 20.0432C10.9193 20.0432 11.8835 19.9329 12.7658 19.7124C13.6481 19.4981 14.3382 19.2082 14.8361 18.8426L14.8455 17.9824C13.3835 17.4405 11.7008 17.0812 9.79755 16.9048L10.1851 14.636H15.857V17.16H15.2804C15.5955 17.557 15.794 17.9289 15.8759 18.2755C15.9579 18.6284 15.9452 19.0002 15.8381 19.3909C15.6301 20.4182 14.9873 21.2186 13.9097 21.792C12.8383 22.3655 11.4235 22.6523 9.66524 22.6523C7.76831 22.6523 6.37554 22.2048 5.48696 21.3099C4.59833 20.4213 4.15405 19.0254 4.15405 17.1222C4.15405 16.6936 4.17611 16.2493 4.22022 15.7893C4.27064 15.3292 4.34627 14.8062 4.4471 14.2201C4.55425 13.6277 4.69289 12.925 4.86304 12.112L6.48897 12.5374ZM26.9455 17.3113C26.1641 17.3113 25.5528 17.0938 25.1116 16.659C24.6705 16.2178 24.4089 15.5876 24.327 14.7684C24.1316 15.575 23.7693 16.2021 23.2399 16.6495C22.7168 17.0907 22.1213 17.3113 21.4533 17.3113C20.7664 17.3113 20.2023 17.0938 19.7612 16.659C19.32 16.2178 19.049 15.5876 18.9482 14.7684C18.6583 15.5876 18.2392 16.1926 17.6909 16.5834C17.1426 16.9678 16.5314 17.16 15.857 17.16C15.7373 17.16 15.6491 17.1096 15.5923 17.0087C15.5356 16.9079 15.5073 16.7346 15.5073 16.4888V15.3072C15.5073 15.0614 15.5356 14.8881 15.5923 14.7873C15.6491 14.6865 15.7373 14.636 15.857 14.636C16.4242 14.636 16.8779 14.5194 17.2183 14.2863C17.5649 14.0531 17.8422 13.6655 18.0501 13.1235C18.2644 12.5815 18.4535 11.8505 18.6173 10.9304L20.1204 11.1289C20.0763 11.4881 20.0385 11.8599 20.007 12.2444C19.9817 12.6225 19.9691 12.9218 19.9691 13.1424C19.9691 13.7474 20.0794 14.1823 20.3 14.447C20.5269 14.7053 20.9302 14.8345 21.51 14.8345C21.9448 14.8345 22.2914 14.7432 22.5498 14.5604C22.8082 14.3713 23.0225 14.0405 23.1926 13.5678C23.3628 13.0889 23.5266 12.4177 23.6842 11.5543H25.2534C25.2219 11.7685 25.1904 12.0616 25.1589 12.4334C25.1337 12.8053 25.1211 13.1109 25.1211 13.3504C25.1211 13.9239 25.2408 14.3146 25.4803 14.5226C25.7261 14.7242 26.1893 14.8251 26.8699 14.8251C27.3425 14.8251 27.6986 14.7778 27.9381 14.6833C28.1776 14.5824 28.4108 14.3997 28.6376 14.135C28.5179 13.5615 28.3635 13.0069 28.1745 12.4713C27.9854 11.9293 27.7585 11.422 27.4938 10.9493L29.1292 9.295C29.375 9.82436 29.5798 10.4294 29.7437 11.11C29.9075 11.7843 29.9895 12.55 29.9895 13.4071C29.9895 13.8545 29.9233 14.3114 29.7909 14.7778C29.6586 15.2379 29.4223 15.8019 29.082 16.4699C28.7353 16.7535 28.3981 16.9646 28.0704 17.1033C27.7491 17.2419 27.3741 17.3113 26.9455 17.3113ZM35.6991 16.9142C35.6991 17.9541 35.5069 18.8994 35.1225 19.7501C34.7444 20.6009 34.2339 21.2784 33.5911 21.7826C32.9483 22.2867 32.233 22.5388 31.4452 22.5388C31.0356 22.5388 30.6322 22.4916 30.2352 22.397C29.8382 22.3088 29.4065 22.1576 28.9401 21.9433L29.5168 20.3646C30.7268 20.2764 31.7635 19.9613 32.6269 19.4193C33.4902 18.8773 34.0763 18.1778 34.3851 17.3207C34.1961 16.596 33.9251 15.8744 33.5722 15.1559C33.2193 14.4312 32.7435 13.6245 32.1448 12.7359L33.8179 10.6846C34.4923 11.9261 34.9744 13.029 35.2643 13.9932C35.5542 14.9574 35.6991 15.9311 35.6991 16.9142ZM39.6978 2.29023V13.8514C39.8806 14.0909 40.1358 14.2831 40.4635 14.428C40.7975 14.5667 41.2607 14.636 41.8531 14.636H41.8625V17.16H41.8531C40.8448 17.16 40.0413 17.0119 39.4425 16.7157C38.8502 16.4132 38.4248 15.9941 38.1664 15.4584C37.908 14.9164 37.7788 14.2894 37.7788 13.5773V9.67313C37.7788 8.52614 37.7379 7.44849 37.6559 6.44015C37.5803 5.42551 37.4606 4.50542 37.2967 3.67984L39.6978 2.29023ZM49.5101 11.8001C49.5101 13.092 49.2739 14.1318 48.8013 14.9196C48.3349 15.7074 47.5755 16.2777 46.523 16.6306C45.4705 16.9836 44.0714 17.16 42.3258 17.16H41.872C41.6388 17.16 41.5222 16.9363 41.5222 16.4888V15.3072C41.5222 14.8597 41.6388 14.636 41.872 14.636H42.3069C43.6996 14.636 44.9161 14.5572 45.9558 14.3997C46.9955 14.2358 47.711 14.0279 48.1017 13.7758C48.114 13.5426 48.1175 13.2842 48.1109 13.0006C48.1109 12.7107 48.1109 12.4429 48.1109 12.1971C47.2727 12.487 46.3655 12.632 45.3887 12.632C44.3613 12.632 43.6114 12.4334 43.1387 12.0364C42.6724 11.6394 42.4392 11.0092 42.4392 10.1458C42.4392 9.22565 42.5873 8.38121 42.8835 7.61235C43.1797 6.84349 43.5736 6.22903 44.0651 5.76897C44.5566 5.30895 45.0956 5.07892 45.6817 5.07892C46.4315 5.07892 47.0932 5.3625 47.667 5.9297C48.2403 6.49686 48.6909 7.28781 49.0187 8.3024C49.3465 9.31075 49.5101 10.4766 49.5101 11.8001ZM47.8087 10.3349C47.6511 9.26979 47.3612 8.46626 46.9388 7.92431C46.5168 7.37603 45.9871 7.10186 45.3508 7.10186C44.9095 7.10186 44.5285 7.31931 44.2068 7.75412C43.8855 8.18897 43.7248 8.70892 43.7248 9.31392C43.7248 9.76765 43.8666 10.0859 44.1501 10.2687C44.44 10.4515 44.9412 10.5428 45.6531 10.5428C46.4979 10.5428 47.216 10.4735 47.8087 10.3349ZM44.4906 1.50563C44.4906 1.15271 44.6165 0.869112 44.8686 0.654841C45.1207 0.434269 45.4234 0.323982 45.7763 0.323982C46.1292 0.323982 46.4284 0.434269 46.6743 0.654841C46.9265 0.869112 47.0523 1.15271 47.0523 1.50563C47.0523 1.85854 46.9265 2.14213 46.6743 2.35641C46.4284 2.57068 46.1292 2.67781 45.7763 2.67781C45.4234 2.67781 45.1207 2.57068 44.8686 2.35641C44.6165 2.14213 44.4906 1.85854 44.4906 1.50563ZM58.0747 10.6846L59.0295 12.4901C59.3067 13.0447 59.565 13.4796 59.8044 13.7947C60.0503 14.1035 60.3183 14.3209 60.6083 14.447C60.9044 14.573 61.2634 14.636 61.6858 14.636H61.6951V17.16H61.6858C61.3202 17.16 60.9959 17.1065 60.7121 16.9993C60.4283 16.8859 60.1577 16.7314 59.899 16.5361C59.9434 17.6642 59.7793 18.682 59.4075 19.5895C59.0419 20.497 58.5345 21.2154 57.8855 21.7448C57.2365 22.2741 56.5088 22.5388 55.7018 22.5388C55.3049 22.5388 54.9081 22.4947 54.5107 22.4065C54.1139 22.3183 53.6756 22.1639 53.1969 21.9433L53.7733 20.3646C54.9833 20.2764 56.0204 19.9613 56.8837 19.4193C57.7469 18.8773 58.333 18.1778 58.6419 17.3207C58.4593 16.6023 58.1883 15.8807 57.8288 15.1559C57.4759 14.4312 57.0003 13.6245 56.4014 12.7359L58.0747 10.6846ZM61.9692 6.21328C61.4399 6.21328 61.1754 5.95804 61.1754 5.44759C61.1754 5.05683 61.3074 4.6409 61.5723 4.19976C63.1792 4.11153 64.3769 4.06742 65.1645 4.06742C65.9587 4.06742 66.4532 4.13044 66.6486 4.25648C66.8439 4.38253 66.9416 4.61569 66.9416 4.95603C66.9416 5.29003 66.8347 5.66183 66.6204 6.07147C66.2675 6.0841 65.9146 6.09668 65.5613 6.10931C65.2085 6.1156 64.607 6.13452 63.756 6.16603C62.9051 6.19753 62.3097 6.21328 61.9692 6.21328ZM61.7047 17.16C61.5851 17.16 61.4966 17.1096 61.4399 17.0087C61.3831 16.9079 61.3549 16.7346 61.3549 16.4888V15.3072C61.3549 15.0614 61.3831 14.8881 61.4399 14.7873C61.4966 14.6865 61.5851 14.636 61.7047 14.636H62.2908C62.814 14.636 63.3085 14.6108 63.7749 14.5604C64.2413 14.5037 64.6131 14.406 64.8903 14.2674C64.7456 13.0574 64.2823 11.6646 63.5008 10.0891L65.4007 8.26461C65.615 8.69317 65.8134 9.20049 65.9965 9.78657C66.1791 10.3726 66.3274 10.9745 66.4409 11.5921C66.554 12.2034 66.6107 12.7706 66.6107 13.2937C66.6107 13.905 66.5161 14.469 66.3274 14.9858C66.1443 15.4963 65.8544 16.0225 65.4575 16.5645C64.9409 16.7787 64.4081 16.9331 63.8599 17.0276C63.3182 17.1159 62.6908 17.16 61.9789 17.16H61.7047ZM78.7393 2.29023V13.8514C78.947 14.135 79.2088 14.3367 79.5238 14.4564C79.845 14.5761 80.2644 14.636 80.7809 14.636H80.7906V17.16H80.7809C79.5837 17.16 78.6857 16.9489 78.0868 16.5266C77.4884 16.1044 77.1069 15.5089 76.9433 14.74C76.0105 15.6601 74.8572 16.3218 73.4831 16.7251C72.1156 17.1222 70.4299 17.3207 68.4257 17.3207L68.596 14.7778C70.4238 14.7778 71.9928 14.6392 73.3036 14.3619C74.6209 14.0846 75.79 13.6088 76.8108 12.9345V9.67313C76.8108 8.54506 76.773 7.47683 76.6973 6.46853C76.6282 5.46018 76.5116 4.53063 76.3475 3.67984L78.7393 2.29023ZM70.0991 2.66836C71.0886 4.28799 71.911 5.86982 72.5661 7.41382C73.2279 8.95154 73.7321 10.4136 74.0788 11.8001C73.8584 11.945 73.6155 12.0774 73.3511 12.1971C73.0924 12.3105 72.8249 12.4145 72.5472 12.5091C72.1503 11.2928 71.7627 10.2088 71.3847 9.2572C71.0129 8.30557 70.5747 7.34452 70.0709 6.37397L68.6149 6.39289L68.7566 4.07687L70.0991 2.66836ZM88.4383 11.8001C88.4383 13.092 88.202 14.1318 87.729 14.9196C87.2626 15.7074 86.5036 16.2777 85.4511 16.6306C84.3986 16.9836 82.9994 17.16 81.2539 17.16H80.7999C80.5667 17.16 80.4501 16.9363 80.4501 16.4888V15.3072C80.4501 14.8597 80.5667 14.636 80.7999 14.636H81.235C82.6276 14.636 83.8438 14.5572 84.8839 14.3997C85.9237 14.2358 86.6386 14.0279 87.0294 13.7758C87.0421 13.5426 87.0452 13.2842 87.039 13.0006C87.039 12.7107 87.039 12.4429 87.039 12.1971C86.2009 12.487 85.2936 12.632 84.3163 12.632C83.2894 12.632 82.5392 12.4334 82.0666 12.0364C81.6002 11.6394 81.367 11.0092 81.367 10.1458C81.367 9.22565 81.5153 8.38121 81.8114 7.61235C82.1075 6.84349 82.5013 6.22903 82.9933 5.76897C83.4847 5.30895 84.0233 5.07892 84.6094 5.07892C85.3596 5.07892 86.0213 5.3625 86.5947 5.9297C87.1684 6.49686 87.619 7.28781 87.9463 8.3024C88.2741 9.31075 88.4383 10.4766 88.4383 11.8001ZM86.7363 10.3349C86.5788 9.26979 86.2893 8.46626 85.8669 7.92431C85.4445 7.37603 84.9152 7.10186 84.2789 7.10186C83.8376 7.10186 83.4561 7.31931 83.1349 7.75412C82.8133 8.18897 82.6527 8.70892 82.6527 9.31392C82.6527 9.76765 82.7944 10.0859 83.0782 10.2687C83.3681 10.4515 83.8693 10.5428 84.5812 10.5428C85.4256 10.5428 86.1441 10.4735 86.7363 10.3349ZM83.4183 1.50563C83.4183 1.15271 83.5446 0.869112 83.7967 0.654841C84.0488 0.434269 84.3511 0.323982 84.704 0.323982C85.0568 0.323982 85.3565 0.434269 85.602 0.654841C85.8541 0.869112 85.9804 1.15271 85.9804 1.50563C85.9804 1.85854 85.8541 2.14213 85.602 2.35641C85.3565 2.57068 85.0568 2.67781 84.704 2.67781C84.3511 2.67781 84.0488 2.57068 83.7967 2.35641C83.5446 2.14213 83.4183 1.85854 83.4183 1.50563ZM98.1182 8.56711L97.8631 7.00735L100.254 5.81627L100.756 13.842C100.919 14.1255 101.184 14.3304 101.549 14.4564C101.922 14.5761 102.356 14.636 102.854 14.636H102.864V17.16H102.854C101.915 17.16 101.19 17.0087 100.68 16.7063C100.17 16.4037 99.788 15.928 99.5359 15.2788C98.578 15.8145 97.5951 16.0824 96.5866 16.0824C95.5658 16.0824 94.7624 15.8586 94.1763 15.4112C93.5902 14.9574 93.2972 14.3556 93.2972 13.6056C93.2972 12.6288 93.6879 11.6803 94.4693 10.7602C95.2569 9.84011 96.4731 9.1091 98.1182 8.56711ZM98.3827 10.2025C97.7275 10.3853 97.119 10.609 96.5584 10.8737C96.0036 11.1384 95.5561 11.444 95.216 11.7906C94.882 12.1372 94.7149 12.5311 94.7149 12.9723C94.7149 13.3567 94.9419 13.6308 95.3955 13.7947C95.8492 13.9586 96.3723 14.0405 96.965 14.0405C97.3368 14.0405 97.6958 14.0153 98.0426 13.9649C98.3954 13.9081 98.6977 13.8514 98.9499 13.7947C98.8618 13.2023 98.7734 12.6351 98.6854 12.0931C98.597 11.5449 98.4962 10.9146 98.3827 10.2025ZM108.157 7.6974C109.367 7.6974 110.338 7.99678 111.069 8.59549C111.8 9.19415 112.165 9.99139 112.165 10.9871C112.165 11.6362 111.973 12.2475 111.589 12.821C111.211 13.3882 110.726 13.8766 110.133 14.2863C110.726 14.5194 111.8 14.636 113.356 14.636H113.366V17.16H113.356C112.273 17.16 111.356 17.056 110.606 16.848C109.862 16.6338 109.238 16.3407 108.734 15.9689C108.23 16.2525 107.732 16.4825 107.24 16.659C106.755 16.8291 106.172 16.9552 105.491 17.0371C104.811 17.119 103.935 17.16 102.864 17.16C102.782 17.16 102.703 17.1127 102.627 17.0182C102.552 16.9174 102.514 16.7409 102.514 16.4888V15.3072C102.514 15.0614 102.549 14.8881 102.618 14.7873C102.681 14.6865 102.763 14.636 102.864 14.636C104.049 14.636 104.994 14.6108 105.699 14.5604C106.412 14.5037 106.972 14.4312 107.382 14.343C107.099 13.9964 106.733 13.6151 106.286 13.1991C105.845 12.7832 105.381 12.3767 104.896 11.9797C104.411 11.5826 103.96 11.2424 103.544 10.9587C103.67 10.3033 103.944 9.73298 104.367 9.24774C104.789 8.75617 105.325 8.37491 105.974 8.10392C106.629 7.83292 107.357 7.6974 108.157 7.6974ZM108.356 9.67313C107.24 9.67313 106.314 9.95042 105.577 10.505C106.043 10.8453 106.553 11.2739 107.108 11.7906C107.669 12.3011 108.204 12.8116 108.715 13.322C109.301 12.9313 109.768 12.5437 110.114 12.1593C110.467 11.7749 110.643 11.4283 110.643 11.1195C110.643 10.7287 110.417 10.3916 109.963 10.108C109.509 9.81807 108.973 9.67313 108.356 9.67313ZM119.766 8.87907C120.503 8.87907 121.121 9.1091 121.619 9.56912C122.116 10.0292 122.492 10.6342 122.743 11.3841C123.002 12.1341 123.131 12.947 123.131 13.823C123.131 14.0247 123.081 14.2863 122.98 14.6076C122.879 14.9228 122.75 15.2473 122.592 15.5813C122.435 15.9153 122.268 16.2084 122.091 16.4605C121.921 16.7126 121.763 16.8764 121.619 16.952C121.127 17.1915 120.49 17.3113 119.709 17.3113C119.098 17.3113 118.502 17.2293 117.922 17.0655C117.349 16.9016 116.857 16.659 116.448 16.3376L116.693 14.8156C116.397 15.5278 115.969 16.0981 115.408 16.5266C114.853 16.9489 114.176 17.16 113.375 17.16C113.256 17.16 113.168 17.1096 113.111 17.0087C113.054 16.9079 113.026 16.7346 113.026 16.4888V15.3072C113.026 15.0614 113.054 14.8881 113.111 14.7873C113.168 14.6865 113.256 14.636 113.375 14.636C114.044 14.636 114.579 14.4595 114.983 14.1066C115.392 13.7537 115.799 13.1771 116.202 12.3767C116.662 11.4566 117.072 10.7445 117.431 10.2403C117.796 9.72985 118.162 9.37693 118.527 9.18157C118.893 8.97992 119.306 8.87907 119.766 8.87907ZM119.662 11.0533C119.353 11.0533 119.076 11.1289 118.83 11.2801C118.591 11.4314 118.342 11.7055 118.083 12.1026C117.825 12.4996 117.519 13.0668 117.166 13.8041C117.443 14.0751 117.837 14.302 118.348 14.4848C118.858 14.6675 119.413 14.7589 120.011 14.7589C120.736 14.7589 121.304 14.6203 121.713 14.343C121.682 13.3599 121.477 12.5658 121.099 11.9608C120.721 11.3558 120.241 11.0533 119.662 11.0533ZM127.101 2.29023V13.8514C127.284 14.0909 127.539 14.2831 127.867 14.428C128.201 14.5667 128.664 14.636 129.257 14.636H129.266V17.16H129.257C128.249 17.16 127.445 17.0119 126.846 16.7157C126.254 16.4132 125.829 15.9941 125.57 15.4584C125.312 14.9164 125.182 14.2894 125.182 13.5773V9.67313C125.182 8.52614 125.141 7.44849 125.059 6.44015C124.984 5.42551 124.864 4.50542 124.7 3.67984L127.101 2.29023ZM132.972 7.91485C133.318 7.91485 133.722 7.99049 134.182 8.14172C134.648 8.29299 135.244 8.53243 135.968 8.86015C137.078 9.35801 138.073 9.72039 138.956 9.94726C139.844 10.1741 140.739 10.2876 141.64 10.2876L140.827 12.9723C140.115 13.0857 139.406 13.3315 138.7 13.7096C138.001 14.0815 137.333 14.491 136.696 14.9385C135.726 15.6065 134.727 16.1454 133.7 16.555C132.672 16.9583 131.538 17.16 130.296 17.16H129.276C129.156 17.16 129.067 17.1096 129.011 17.0087C128.954 16.9079 128.926 16.7346 128.926 16.4888V15.3072C128.926 15.0614 128.954 14.8881 129.011 14.7873C129.067 14.6865 129.156 14.636 129.276 14.636H129.796C130.728 14.636 131.633 14.5383 132.509 14.343C133.385 14.1476 134.295 13.8451 135.241 13.4355C136.192 13.0258 137.238 12.5028 138.379 11.8663C137.755 11.7213 137.185 11.5637 136.668 11.3936C136.151 11.2234 135.543 10.9934 134.843 10.7035C134.339 10.5018 133.939 10.3632 133.643 10.2876C133.347 10.2057 133.101 10.1647 132.906 10.1647C132.528 10.1647 132.247 10.3222 132.064 10.6374C131.882 10.9524 131.733 11.5228 131.62 12.3484L130.174 12.2255C130.312 10.7634 130.618 9.67943 131.091 8.97358C131.57 8.26778 132.197 7.91485 132.972 7.91485ZM133.388 20.8184C133.388 20.4655 133.514 20.1787 133.766 19.9581C134.018 19.7439 134.321 19.6367 134.673 19.6367C135.026 19.6367 135.326 19.7439 135.571 19.9581C135.824 20.1787 135.949 20.4655 135.949 20.8184C135.949 21.1713 135.824 21.4549 135.571 21.6691C135.326 21.8834 135.026 21.9905 134.673 21.9905C134.321 21.9905 134.018 21.8834 133.766 21.6691C133.514 21.4549 133.388 21.1713 133.388 20.8184Z" fill="#1733B8"/>
<path id="Vector_2" d="M4.7793 38.72V28.3448H8.35914C9.64746 28.3448 10.6507 28.6458 11.3687 29.2477C12.0868 29.839 12.4459 30.668 12.4459 31.7346C12.4459 32.8434 12.0763 33.6987 11.3371 34.3006C10.6084 34.9026 9.56826 35.2035 8.21658 35.2035H6.56922V38.72H4.7793ZM10.6401 31.7662C10.6401 31.1432 10.45 30.668 10.0699 30.3406C9.70026 30.0027 9.15642 29.8338 8.43834 29.8338H6.56922V33.7621H8.32746C9.06666 33.7621 9.6369 33.5878 10.0382 33.2394C10.4395 32.8909 10.6401 32.3998 10.6401 31.7662ZM18.485 37.4686L19.8789 37.5003L19.8155 38.8784L17.9147 38.8467C16.4891 38.8256 15.4279 38.5088 14.7309 37.8963C14.0445 37.2733 13.7013 36.3387 13.7013 35.0926C13.7013 33.9205 14.0709 32.949 14.8101 32.1781C15.5493 31.4072 16.4944 31.0218 17.6455 31.0218C18.7754 31.0218 19.6677 31.365 20.3224 32.0514C20.9877 32.7272 21.3203 33.6565 21.3203 34.8392C21.3203 34.9765 21.3098 35.1138 21.2887 35.251C21.2781 35.3778 21.2623 35.4939 21.2411 35.5995H15.4437C15.5387 36.2437 15.8186 36.7083 16.2832 36.9934C16.7479 37.2786 17.4818 37.437 18.485 37.4686ZM17.6613 32.384C17.0805 32.384 16.5947 32.5582 16.204 32.9067C15.8133 33.2552 15.5651 33.7357 15.4595 34.3482H19.5938C19.5515 33.7146 19.3615 33.2288 19.0235 32.8909C18.6856 32.553 18.2315 32.384 17.6613 32.384ZM22.7342 38.72V37.2152H24.5241V32.7642H23.051V31.2594H26.0922L26.1873 33.6037C26.8103 32.7694 27.3278 32.1887 27.7396 31.8613C28.1514 31.5339 28.653 31.3491 29.2444 31.3069L30.7175 31.196L30.8442 32.9859L29.4186 33.0968C29.0596 33.1285 28.7586 33.176 28.5158 33.2394C28.2729 33.2922 28.0406 33.3978 27.8188 33.5562C27.6182 33.6934 27.4017 33.8835 27.1694 34.1264C26.937 34.3587 26.6466 34.665 26.2982 35.0451V37.2152H28.4999V38.72H22.7342ZM39.5445 36.5658C39.5445 37.2944 39.2066 37.8699 38.5307 38.2923C37.8654 38.7147 36.9414 38.9259 35.7587 38.9259C35.2202 38.9259 34.6975 38.8995 34.1906 38.8467C33.6943 38.8045 33.1399 38.7306 32.5274 38.625L32.7175 37.1677C33.2983 37.2733 33.8632 37.3578 34.4123 37.4211C34.972 37.4845 35.4366 37.5162 35.8062 37.5162C36.461 37.5162 36.9467 37.4475 37.2635 37.3102C37.5803 37.1624 37.7387 36.9459 37.7387 36.6608C37.7387 36.4285 37.649 36.249 37.4694 36.1222C37.3005 35.9955 36.9943 35.8794 36.5507 35.7738L35.0459 35.457C34.18 35.2669 33.5675 35.0187 33.2085 34.7125C32.8494 34.3957 32.6699 33.9258 32.6699 33.3027C32.6699 32.5741 32.9762 32.0197 33.5886 31.6395C34.2117 31.2488 35.1251 31.0534 36.329 31.0534C36.7091 31.0534 37.1579 31.0798 37.6754 31.1326C38.1928 31.1749 38.6891 31.2383 39.1643 31.3227L38.9901 32.78C38.4621 32.685 37.9605 32.6111 37.4853 32.5582C37.0206 32.5054 36.6194 32.479 36.2815 32.479C35.6584 32.479 35.199 32.5371 34.9034 32.6533C34.6182 32.7589 34.4757 32.9384 34.4757 33.1918C34.4757 33.4136 34.5549 33.5826 34.7133 33.6987C34.8822 33.8043 35.1885 33.9152 35.632 34.0314L37.1051 34.3482C38.0027 34.5488 38.6311 34.8075 38.9901 35.1243C39.3597 35.4411 39.5445 35.9216 39.5445 36.5658ZM46.7875 28.1864C46.7875 28.5454 46.6608 28.8306 46.4073 29.0418C46.1645 29.2424 45.8213 29.3427 45.3777 29.3427C44.9448 29.3427 44.6069 29.2424 44.364 29.0418C44.1211 28.8306 43.9996 28.5402 43.9996 28.1706C43.9996 27.8221 44.1264 27.5422 44.3798 27.331C44.6438 27.1093 44.9817 26.9984 45.3936 26.9984C45.8371 26.9984 46.1803 27.104 46.4232 27.3152C46.6661 27.5158 46.7875 27.8062 46.7875 28.1864ZM42.0513 38.72V37.2152H44.6174V32.7642H42.3681V31.2594H46.3915V37.2152H48.9734V38.72H42.0513ZM57.6102 33.5878V36.645C57.6102 36.9301 57.6471 37.1254 57.7211 37.231C57.8055 37.3366 57.9639 37.3947 58.1963 37.4053L58.9091 37.4686L58.7665 38.7992L57.7686 38.7359C57.2617 38.7147 56.8657 38.6302 56.5806 38.4824C56.306 38.324 56.1107 38.0917 55.9945 37.7854H55.8361C55.382 38.1445 54.9068 38.4138 54.4105 38.5933C53.9142 38.7728 53.3915 38.8626 52.8423 38.8626C52.1348 38.8626 51.5751 38.6725 51.1633 38.2923C50.762 37.9016 50.5614 37.3683 50.5614 36.6925C50.5614 35.9427 50.762 35.3936 51.1633 35.0451C51.5646 34.6967 52.251 34.4643 53.2225 34.3482L55.9153 34.063V33.6037C55.9153 33.1813 55.7886 32.8962 55.5351 32.7483C55.2817 32.6005 54.8223 32.5266 54.1571 32.5266C53.8508 32.5266 53.4601 32.5477 52.9849 32.5899C52.5097 32.6322 51.9975 32.6955 51.4484 32.78L51.2742 31.3702C51.8233 31.2858 52.3513 31.2224 52.8582 31.1802C53.3756 31.1379 53.835 31.1168 54.2363 31.1168C55.4507 31.1168 56.3166 31.3069 56.834 31.687C57.3515 32.0566 57.6102 32.6902 57.6102 33.5878ZM52.2879 36.5816C52.2879 36.8878 52.3724 37.1255 52.5414 37.2944C52.7209 37.4528 52.9743 37.532 53.3017 37.532C53.6924 37.532 54.0884 37.4475 54.4897 37.2786C54.9015 37.099 55.3767 36.8192 55.9153 36.439V35.156L53.6343 35.457C53.1486 35.5203 52.8001 35.6365 52.5889 35.8054C52.3883 35.9638 52.2879 36.2226 52.2879 36.5816ZM60.3069 31.2594H61.8276L61.9701 32.7483C62.6249 32.157 63.1845 31.7398 63.6492 31.497C64.1244 31.2541 64.6101 31.1326 65.1065 31.1326C65.8351 31.1326 66.3842 31.3386 66.7538 31.7504C67.1234 32.1517 67.3082 32.7589 67.3082 33.572V38.72H65.5341V33.8888C65.5341 33.5086 65.4497 33.2288 65.2807 33.0493C65.1223 32.8698 64.8689 32.78 64.5204 32.78C64.2247 32.78 63.8921 32.8909 63.5225 33.1126C63.1529 33.3238 62.6724 33.6934 62.081 34.2214V38.72H60.3069V31.2594ZM78.9748 38.72V28.3448H85.9127V29.8338H80.7647V33.2552H85.4217V34.7442H80.7647V38.72H78.9748ZM90.3202 35.8371V28.9784H87.5957V27.4736H92.0785V35.6787C92.0785 36.2067 92.1788 36.5869 92.3794 36.8192C92.5906 37.041 92.9549 37.1677 93.4724 37.1994L95.1989 37.2944L95.1197 38.8151L93.1556 38.72C92.0785 38.6672 91.334 38.4349 90.9221 38.023C90.5209 37.6006 90.3202 36.872 90.3202 35.8371ZM104.264 31.2594V38.72H102.696L102.585 37.2469C101.941 37.8382 101.381 38.2554 100.906 38.4983C100.441 38.7411 99.9606 38.8626 99.4643 38.8626C98.7357 38.8626 98.1865 38.6566 97.8169 38.2448C97.4473 37.833 97.2625 37.2258 97.2625 36.4232V31.2594H99.0366V36.0906C99.0366 36.4707 99.1158 36.7506 99.2742 36.9301C99.4432 37.1096 99.7019 37.1994 100.05 37.1994C100.346 37.1994 100.679 37.0938 101.048 36.8826C101.418 36.6608 101.898 36.2859 102.49 35.7579V31.2594H104.264ZM108.497 35.7738V32.7642H106.089V31.2594H108.513V28.5982H110.239V31.2594H113.376V32.7642H110.271V35.552C110.271 36.1645 110.361 36.5816 110.54 36.8034C110.73 37.0251 111.095 37.1519 111.633 37.1835L113.788 37.3102L113.661 38.8309L111.222 38.72C110.144 38.6672 109.421 38.4402 109.051 38.0389C108.682 37.6376 108.497 36.8826 108.497 35.7738ZM117.752 35.7738V32.7642H115.344V31.2594H117.767V28.5982H119.494V31.2594H122.63V32.7642H119.526V35.552C119.526 36.1645 119.615 36.5816 119.795 36.8034C119.985 37.0251 120.349 37.1519 120.888 37.1835L123.042 37.3102L122.915 38.8309L120.476 38.72C119.399 38.6672 118.676 38.4402 118.306 38.0389C117.936 37.6376 117.752 36.8826 117.752 35.7738ZM129.54 37.4686L130.934 37.5003L130.871 38.8784L128.97 38.8467C127.545 38.8256 126.483 38.5088 125.786 37.8963C125.1 37.2733 124.757 36.3387 124.757 35.0926C124.757 33.9205 125.126 32.949 125.866 32.1781C126.605 31.4072 127.55 31.0218 128.701 31.0218C129.831 31.0218 130.723 31.365 131.378 32.0514C132.043 32.7272 132.376 33.6565 132.376 34.8392C132.376 34.9765 132.365 35.1138 132.344 35.251C132.334 35.3778 132.318 35.4939 132.297 35.5995H126.499C126.594 36.2437 126.874 36.7083 127.339 36.9934C127.803 37.2786 128.537 37.437 129.54 37.4686ZM128.717 32.384C128.136 32.384 127.65 32.5582 127.26 32.9067C126.869 33.2552 126.621 33.7357 126.515 34.3482H130.649C130.607 33.7146 130.417 33.2288 130.079 32.8909C129.741 32.553 129.287 32.384 128.717 32.384ZM133.79 38.72V37.2152H135.58V32.7642H134.107V31.2594H137.148L137.243 33.6037C137.866 32.7694 138.384 32.1887 138.795 31.8613C139.207 31.5339 139.709 31.3491 140.3 31.3069L141.773 31.196L141.9 32.9859L140.475 33.0968C140.115 33.1285 139.814 33.176 139.572 33.2394C139.329 33.2922 139.096 33.3978 138.875 33.5562C138.674 33.6934 138.458 33.8835 138.225 34.1264C137.993 34.3587 137.702 34.665 137.354 35.0451V37.2152H139.556V38.72H133.79Z" fill="#1733B8"/>
<path id="Vector_3" d="M169.058 23.5863L190.391 2.25338C191.223 1.42183 190.634 0 189.457 0H153.24C152.511 0 151.92 0.590986 151.92 1.32V8.28406C151.92 9.01309 152.511 9.60406 153.24 9.60406H166.378C167.554 9.60406 168.143 11.0259 167.311 11.8574L165.187 13.9822C164.939 14.2298 164.603 14.3689 164.253 14.3689H153.24C152.511 14.3689 151.92 14.9599 151.92 15.6889V33.7747C151.92 34.1248 152.059 34.4606 152.307 34.7081L159.271 41.6722C160.102 42.5037 161.524 41.9148 161.524 40.7388V25.2929C161.524 24.5639 162.115 23.9729 162.844 23.9729H168.124C168.475 23.9729 168.81 23.8339 169.058 23.5863Z" fill="#1733B8"/>
<path id="Vector_4" d="M208.963 0H198.926C198.575 0 198.238 0.140303 197.99 0.389789L177.421 21.0988C176.906 21.6167 176.91 22.454 177.429 22.9674L182.405 27.889C182.921 28.3997 183.753 28.3974 184.266 27.8839L209.897 2.25338C210.728 1.42183 210.14 0 208.963 0Z" fill="#1733B8"/>
<path id="Vector_5" d="M208.964 20.3249H198.998C198.648 20.3249 198.312 20.464 198.065 20.7115L187.547 31.229C187.032 31.7445 187.032 32.5803 187.547 33.0958L198.065 43.6134C198.312 43.8609 198.648 44 198.998 44H208.964C210.14 44 210.728 42.5782 209.897 41.7466L201.246 33.0958C200.731 32.5803 200.731 31.7445 201.246 31.229L209.897 22.5782C210.728 21.7467 210.14 20.3249 208.964 20.3249Z" fill="#1733B8"/>
</g>
</svg>
