<svg width="59" height="44" viewBox="0 0 59 44" fill="none" xmlns="http://www.w3.org/2000/svg">
<path d="M17.138 23.5863L38.471 2.25338C39.3026 1.42183 38.7134 0 37.5373 0H1.32C0.59092 0 0 0.590986 0 1.32V8.28406C0 9.01309 0.59092 9.60406 1.32 9.60406H14.458C15.6341 9.60406 16.2228 11.0259 15.3912 11.8574L13.2664 13.9822C13.0187 14.2298 12.683 14.3689 12.3332 14.3689H1.32C0.59092 14.3689 0 14.9599 0 15.6889V33.7747C0 34.1248 0.139039 34.4606 0.386759 34.7081L7.35064 41.6722C8.18224 42.5037 9.60388 41.9148 9.60388 40.7388V25.2929C9.60388 24.5639 10.1952 23.9729 10.9239 23.9729H16.2043C16.5546 23.9729 16.8903 23.8339 17.138 23.5863Z" />
<path d="M57.0433 0H47.006C46.6545 0 46.3174 0.140303 46.0697 0.389789L25.5006 21.0988C24.9862 21.6167 24.9898 22.454 25.509 22.9674L30.4845 27.889C31.001 28.3997 31.8326 28.3974 32.3461 27.8839L57.9766 2.25338C58.8082 1.42183 58.2194 0 57.0433 0Z" />
<path d="M57.0436 20.3249H47.0785C46.7282 20.3249 46.3925 20.464 46.1448 20.7115L35.6275 31.229C35.1118 31.7445 35.1118 32.5803 35.6275 33.0958L46.1448 43.6134C46.3925 43.8609 46.7282 44 47.0785 44H57.0436C58.2197 44 58.8084 42.5782 57.9768 41.7466L49.326 33.0958C48.8108 32.5803 48.8108 31.7445 49.326 31.229L57.9768 22.5782C58.8084 21.7467 58.2197 20.3249 57.0436 20.3249Z" />
    <style>
        path { fill: #1733B8; }
        @media (prefers-color-scheme: dark) {
            path { fill: #FFF; }
        }
    </style>
</svg>